<svg width="512" height="512" viewBox="0 0 512 512" fill="none" xmlns="http://www.w3.org/2000/svg">
  <rect width="512" height="512" rx="110" fill="#28A745"/>
  <!-- Paddle head border -->
  <rect x="70" y="55" width="372" height="340" rx="68" fill="none" stroke="white" stroke-width="26"/>
  <!-- Finder top-left -->
  <rect x="102" y="87" width="100" height="100" rx="14" fill="white"/>
  <rect x="122" y="107" width="60" height="60" rx="8" fill="#28A745"/>
  <rect x="140" y="125" width="24" height="24" rx="4" fill="white"/>
  <!-- Finder top-right -->
  <rect x="310" y="87" width="100" height="100" rx="14" fill="white"/>
  <rect x="330" y="107" width="60" height="60" rx="8" fill="#28A745"/>
  <rect x="348" y="125" width="24" height="24" rx="4" fill="white"/>
  <!-- Finder bottom-left -->
  <rect x="102" y="208" width="100" height="100" rx="14" fill="white"/>
  <rect x="122" y="228" width="60" height="60" rx="8" fill="#28A745"/>
  <rect x="140" y="246" width="24" height="24" rx="4" fill="white"/>
  <!-- Data dots bottom-right -->
  <rect x="310" y="208" width="26" height="26" rx="5" fill="white"/>
  <rect x="352" y="208" width="26" height="26" rx="5" fill="white"/>
  <rect x="394" y="208" width="26" height="26" rx="5" fill="white"/>
  <rect x="310" y="249" width="26" height="26" rx="5" fill="white"/>
  <rect x="394" y="249" width="26" height="26" rx="5" fill="white"/>
  <rect x="310" y="290" width="26" height="26" rx="5" fill="white"/>
  <rect x="352" y="290" width="26" height="26" rx="5" fill="white"/>
  <!-- Center dots -->
  <rect x="225" y="87" width="26" height="26" rx="5" fill="white"/>
  <rect x="225" y="128" width="26" height="26" rx="5" fill="white"/>
  <rect x="102" y="169" width="26" height="26" rx="5" fill="white"/>
  <rect x="143" y="169" width="26" height="26" rx="5" fill="white"/>
  <rect x="225" y="169" width="26" height="26" rx="5" fill="white"/>
  <rect x="310" y="169" width="26" height="26" rx="5" fill="white"/>
  <rect x="352" y="169" width="26" height="26" rx="5" fill="white"/>
  <rect x="394" y="169" width="26" height="26" rx="5" fill="white"/>
  <!-- Stem -->
  <rect x="233" y="395" width="46" height="72" rx="23" fill="white"/>
</svg>
