<svg xmlns="http://www.w3.org/2000/svg" viewBox="0 0 100 122" width="100" height="122"><path d="M44 78 L56 78 L54 90 L46 90 Z" fill="#16130F"></path><rect x="43.5" y="86" width="13" height="33" rx="6.5" fill="#16130F"></rect><rect x="12" y="6" width="76" height="76" rx="21" fill="none" stroke="#16130F" stroke-width="6.5"></rect><g shape-rendering="crispEdges"><rect x="24" y="18" width="4.2" height="4.2" fill="#16130F"></rect><rect x="28" y="18" width="4.2" height="4.2" fill="#16130F"></rect><rect x="32" y="18" width="4.2" height="4.2" fill="#16130F"></rect><rect x="36" y="18" width="4.2" height="4.2" fill="#16130F"></rect><rect x="40" y="18" width="4.2" height="4.2" fill="#16130F"></rect><rect x="56" y="18" width="4.2" height="4.2" fill="#16130F"></rect><rect x="60" y="18" width="4.2" height="4.2" fill="#16130F"></rect><rect x="64" y="18" width="4.2" height="4.2" fill="#16130F"></rect><rect x="68" y="18" width="4.2" height="4.2" fill="#16130F"></rect><rect x="72" y="18" width="4.2" height="4.2" fill="#16130F"></rect><rect x="24" y="22" width="4.2" height="4.2" fill="#16130F"></rect><rect x="40" y="22" width="4.2" height="4.2" fill="#16130F"></rect><rect x="56" y="22" width="4.2" height="4.2" fill="#16130F"></rect><rect x="72" y="22" width="4.2" height="4.2" fill="#16130F"></rect><rect x="24" y="26" width="4.2" height="4.2" fill="#16130F"></rect><rect x="32" y="26" width="4.2" height="4.2" fill="#16130F"></rect><rect x="40" y="26" width="4.2" height="4.2" fill="#16130F"></rect><rect x="48" y="26" width="4.2" height="4.2" fill="#16130F"></rect><rect x="56" y="26" width="4.2" height="4.2" fill="#16130F"></rect><rect x="64" y="26" width="4.2" height="4.2" fill="#16130F"></rect><rect x="72" y="26" width="4.2" height="4.2" fill="#16130F"></rect><rect x="24" y="30" width="4.2" height="4.2" fill="#16130F"></rect><rect x="40" y="30" width="4.2" height="4.2" fill="#16130F"></rect><rect x="48" y="30" width="4.2" height="4.2" fill="#16130F"></rect><rect x="56" y="30" width="4.2" height="4.2" fill="#16130F"></rect><rect x="72" y="30" width="4.2" height="4.2" fill="#16130F"></rect><rect x="24" y="34" width="4.2" height="4.2" fill="#16130F"></rect><rect x="28" y="34" width="4.2" height="4.2" fill="#16130F"></rect><rect x="32" y="34" width="4.2" height="4.2" fill="#16130F"></rect><rect x="36" y="34" width="4.2" height="4.2" fill="#16130F"></rect><rect x="40" y="34" width="4.2" height="4.2" fill="#16130F"></rect><rect x="48" y="34" width="4.2" height="4.2" fill="#16130F"></rect><rect x="56" y="34" width="4.2" height="4.2" fill="#16130F"></rect><rect x="60" y="34" width="4.2" height="4.2" fill="#16130F"></rect><rect x="64" y="34" width="4.2" height="4.2" fill="#16130F"></rect><rect x="68" y="34" width="4.2" height="4.2" fill="#16130F"></rect><rect x="72" y="34" width="4.2" height="4.2" fill="#16130F"></rect><rect x="32" y="42" width="4.2" height="4.2" fill="#16130F"></rect><rect x="36" y="42" width="4.2" height="4.2" fill="#16130F"></rect><rect x="48" y="42" width="4.2" height="4.2" fill="#16130F"></rect><rect x="52" y="42" width="4.2" height="4.2" fill="#16130F"></rect><rect x="68" y="42" width="4.2" height="4.2" fill="#16130F"></rect><rect x="48" y="46" width="4.2" height="4.2" fill="#16130F"></rect><rect x="56" y="46" width="4.2" height="4.2" fill="#16130F"></rect><rect x="24" y="50" width="4.2" height="4.2" fill="#16130F"></rect><rect x="28" y="50" width="4.2" height="4.2" fill="#16130F"></rect><rect x="32" y="50" width="4.2" height="4.2" fill="#16130F"></rect><rect x="36" y="50" width="4.2" height="4.2" fill="#16130F"></rect><rect x="40" y="50" width="4.2" height="4.2" fill="#16130F"></rect><rect x="48" y="50" width="4.2" height="4.2" fill="#16130F"></rect><rect x="52" y="50" width="4.2" height="4.2" fill="#16130F"></rect><rect x="60" y="50" width="4.2" height="4.2" fill="#16130F"></rect><rect x="64" y="50" width="4.2" height="4.2" fill="#16130F"></rect><rect x="68" y="50" width="4.2" height="4.2" fill="#16130F"></rect><rect x="72" y="50" width="4.2" height="4.2" fill="#16130F"></rect><rect x="24" y="54" width="4.2" height="4.2" fill="#16130F"></rect><rect x="40" y="54" width="4.2" height="4.2" fill="#16130F"></rect><rect x="48" y="54" width="4.2" height="4.2" fill="#16130F"></rect><rect x="52" y="54" width="4.2" height="4.2" fill="#16130F"></rect><rect x="56" y="54" width="4.2" height="4.2" fill="#16130F"></rect><rect x="60" y="54" width="4.2" height="4.2" fill="#16130F"></rect><rect x="24" y="58" width="4.2" height="4.2" fill="#16130F"></rect><rect x="32" y="58" width="4.2" height="4.2" fill="#16130F"></rect><rect x="40" y="58" width="4.2" height="4.2" fill="#16130F"></rect><rect x="60" y="58" width="4.2" height="4.2" fill="#16130F"></rect><rect x="24" y="62" width="4.2" height="4.2" fill="#16130F"></rect><rect x="40" y="62" width="4.2" height="4.2" fill="#16130F"></rect><rect x="48" y="62" width="4.2" height="4.2" fill="#16130F"></rect><rect x="52" y="62" width="4.2" height="4.2" fill="#16130F"></rect><rect x="56" y="62" width="4.2" height="4.2" fill="#16130F"></rect><rect x="24" y="66" width="4.2" height="4.2" fill="#16130F"></rect><rect x="28" y="66" width="4.2" height="4.2" fill="#16130F"></rect><rect x="32" y="66" width="4.2" height="4.2" fill="#16130F"></rect><rect x="36" y="66" width="4.2" height="4.2" fill="#16130F"></rect><rect x="40" y="66" width="4.2" height="4.2" fill="#16130F"></rect><rect x="48" y="66" width="4.2" height="4.2" fill="#16130F"></rect><rect x="60" y="66" width="4.2" height="4.2" fill="#16130F"></rect><rect x="72" y="66" width="4.2" height="4.2" fill="#16130F"></rect></g></svg>